<mxfile host="app.diagrams.net" modified="2023-10-23T07:50:22.036Z" agent="Mozilla/5.0 (Macintosh; Intel Mac OS X 10.15; rv:109.0) Gecko/20100101 Firefox/118.0" etag="BUfXwI4ADP7WErIPwwHG" version="22.0.6" type="github">
  <diagram name="Page-1" id="Xh5tXw7hAJgVpsqoay2i">
    <mxGraphModel dx="1324" dy="786" grid="1" gridSize="10" guides="1" tooltips="1" connect="1" arrows="1" fold="1" page="1" pageScale="1" pageWidth="850" pageHeight="1100" math="0" shadow="0">
      <root>
        <mxCell id="0" />
        <mxCell id="1" parent="0" />
        <mxCell id="EMKO13ywyZYLZtBqqljn-79" style="edgeStyle=orthogonalEdgeStyle;rounded=0;orthogonalLoop=1;jettySize=auto;html=1;exitX=1;exitY=0.5;exitDx=0;exitDy=0;entryX=0;entryY=0.5;entryDx=0;entryDy=0;" edge="1" parent="1" source="EMKO13ywyZYLZtBqqljn-1" target="EMKO13ywyZYLZtBqqljn-4">
          <mxGeometry relative="1" as="geometry" />
        </mxCell>
        <mxCell id="EMKO13ywyZYLZtBqqljn-1" value="" style="rounded=0;whiteSpace=wrap;html=1;" vertex="1" parent="1">
          <mxGeometry x="130" y="660" width="470" height="210" as="geometry" />
        </mxCell>
        <mxCell id="EMKO13ywyZYLZtBqqljn-2" value="&lt;div style=&quot;font-size: 13px;&quot;&gt;&lt;font style=&quot;font-size: 16px;&quot;&gt;Server daedalus&lt;/font&gt;&lt;/div&gt;" style="text;html=1;strokeColor=none;fillColor=none;align=center;verticalAlign=middle;whiteSpace=wrap;rounded=0;" vertex="1" parent="1">
          <mxGeometry x="145" y="670" width="140" height="30" as="geometry" />
        </mxCell>
        <mxCell id="EMKO13ywyZYLZtBqqljn-3" value="定时任务" style="rounded=0;whiteSpace=wrap;html=1;" vertex="1" parent="1">
          <mxGeometry x="155" y="710" width="120" height="60" as="geometry" />
        </mxCell>
        <mxCell id="EMKO13ywyZYLZtBqqljn-80" style="edgeStyle=orthogonalEdgeStyle;rounded=0;orthogonalLoop=1;jettySize=auto;html=1;entryX=0;entryY=0.5;entryDx=0;entryDy=0;" edge="1" parent="1" source="EMKO13ywyZYLZtBqqljn-4" target="EMKO13ywyZYLZtBqqljn-39">
          <mxGeometry relative="1" as="geometry" />
        </mxCell>
        <mxCell id="EMKO13ywyZYLZtBqqljn-4" value="" style="rounded=0;whiteSpace=wrap;html=1;" vertex="1" parent="1">
          <mxGeometry x="820" y="745" width="170" height="40" as="geometry" />
        </mxCell>
        <mxCell id="EMKO13ywyZYLZtBqqljn-9" value="Service Call" style="rounded=0;whiteSpace=wrap;html=1;" vertex="1" parent="1">
          <mxGeometry x="155" y="780" width="120" height="60" as="geometry" />
        </mxCell>
        <mxCell id="EMKO13ywyZYLZtBqqljn-18" value="" style="rounded=0;whiteSpace=wrap;html=1;" vertex="1" parent="1">
          <mxGeometry x="130" y="370" width="470" height="200" as="geometry" />
        </mxCell>
        <mxCell id="EMKO13ywyZYLZtBqqljn-21" value="Emails DSL in React" style="rounded=0;whiteSpace=wrap;html=1;" vertex="1" parent="1">
          <mxGeometry x="150" y="490" width="210" height="60" as="geometry" />
        </mxCell>
        <mxCell id="EMKO13ywyZYLZtBqqljn-23" value="Renderer&lt;br&gt;react-dom/server" style="rounded=0;whiteSpace=wrap;html=1;" vertex="1" parent="1">
          <mxGeometry x="370" y="490" width="210" height="60" as="geometry" />
        </mxCell>
        <mxCell id="EMKO13ywyZYLZtBqqljn-24" value="Test" style="rounded=0;whiteSpace=wrap;html=1;" vertex="1" parent="1">
          <mxGeometry x="150" y="420" width="120" height="60" as="geometry" />
        </mxCell>
        <mxCell id="EMKO13ywyZYLZtBqqljn-27" value="release-it" style="rounded=0;whiteSpace=wrap;html=1;" vertex="1" parent="1">
          <mxGeometry x="460" y="420" width="120" height="60" as="geometry" />
        </mxCell>
        <mxCell id="EMKO13ywyZYLZtBqqljn-30" value="&lt;font style=&quot;font-size: 14px;&quot;&gt;Outlook 邮件服务&lt;/font&gt;" style="text;html=1;strokeColor=none;fillColor=none;align=center;verticalAlign=middle;whiteSpace=wrap;rounded=0;" vertex="1" parent="1">
          <mxGeometry x="845" y="750" width="120" height="30" as="geometry" />
        </mxCell>
        <mxCell id="EMKO13ywyZYLZtBqqljn-31" value="" style="rounded=0;whiteSpace=wrap;html=1;" vertex="1" parent="1">
          <mxGeometry x="660" y="370" width="470" height="210" as="geometry" />
        </mxCell>
        <mxCell id="EMKO13ywyZYLZtBqqljn-32" value="Github" style="text;html=1;strokeColor=none;fillColor=none;align=center;verticalAlign=middle;whiteSpace=wrap;rounded=0;" vertex="1" parent="1">
          <mxGeometry x="670" y="380" width="140" height="30" as="geometry" />
        </mxCell>
        <mxCell id="EMKO13ywyZYLZtBqqljn-35" value="Pull Request" style="rounded=0;whiteSpace=wrap;html=1;" vertex="1" parent="1">
          <mxGeometry x="980" y="420" width="120" height="60" as="geometry" />
        </mxCell>
        <mxCell id="EMKO13ywyZYLZtBqqljn-36" value="NPM Package" style="rounded=0;whiteSpace=wrap;html=1;" vertex="1" parent="1">
          <mxGeometry x="980" y="500" width="120" height="60" as="geometry" />
        </mxCell>
        <mxCell id="EMKO13ywyZYLZtBqqljn-37" value="" style="rounded=0;whiteSpace=wrap;html=1;" vertex="1" parent="1">
          <mxGeometry x="680" y="420" width="290" height="140" as="geometry" />
        </mxCell>
        <mxCell id="EMKO13ywyZYLZtBqqljn-34" value="Publish Prod" style="rounded=0;whiteSpace=wrap;html=1;" vertex="1" parent="1">
          <mxGeometry x="690" y="490" width="120" height="60" as="geometry" />
        </mxCell>
        <mxCell id="EMKO13ywyZYLZtBqqljn-33" value="Publish RC" style="rounded=0;whiteSpace=wrap;html=1;" vertex="1" parent="1">
          <mxGeometry x="835" y="490" width="120" height="60" as="geometry" />
        </mxCell>
        <mxCell id="EMKO13ywyZYLZtBqqljn-38" value="CI" style="text;html=1;strokeColor=none;fillColor=none;align=center;verticalAlign=middle;whiteSpace=wrap;rounded=0;" vertex="1" parent="1">
          <mxGeometry x="690" y="430" width="60" height="30" as="geometry" />
        </mxCell>
        <mxCell id="EMKO13ywyZYLZtBqqljn-78" style="edgeStyle=orthogonalEdgeStyle;rounded=0;orthogonalLoop=1;jettySize=auto;html=1;entryX=0.5;entryY=1;entryDx=0;entryDy=0;" edge="1" parent="1" source="EMKO13ywyZYLZtBqqljn-39" target="EMKO13ywyZYLZtBqqljn-28">
          <mxGeometry relative="1" as="geometry" />
        </mxCell>
        <mxCell id="EMKO13ywyZYLZtBqqljn-39" value="" style="rounded=0;whiteSpace=wrap;html=1;" vertex="1" parent="1">
          <mxGeometry x="1260" y="740" width="160" height="50" as="geometry" />
        </mxCell>
        <mxCell id="EMKO13ywyZYLZtBqqljn-40" value="&lt;font style=&quot;font-size: 14px;&quot;&gt;Outlook 客户端&lt;/font&gt;" style="text;html=1;strokeColor=none;fillColor=none;align=center;verticalAlign=middle;whiteSpace=wrap;rounded=0;" vertex="1" parent="1">
          <mxGeometry x="1280" y="750" width="120" height="30" as="geometry" />
        </mxCell>
        <mxCell id="EMKO13ywyZYLZtBqqljn-53" value="" style="rounded=0;whiteSpace=wrap;html=1;" vertex="1" parent="1">
          <mxGeometry x="287.5" y="710" width="272.5" height="130" as="geometry" />
        </mxCell>
        <mxCell id="EMKO13ywyZYLZtBqqljn-52" value="NextJS Dev Playground" style="rounded=0;whiteSpace=wrap;html=1;" vertex="1" parent="1">
          <mxGeometry x="285" y="420" width="160" height="60" as="geometry" />
        </mxCell>
        <mxCell id="EMKO13ywyZYLZtBqqljn-55" value="&lt;div style=&quot;color: rgb(225, 228, 232); background-color: rgb(36, 41, 46); font-family: Fira Code, Menlo, Monaco, &amp;quot;Courier New&amp;quot;, monospace, Menlo, Monaco, &amp;quot;Courier New&amp;quot;, monospace; font-weight: normal; font-size: 14px; line-height: 21px;&quot;&gt;&lt;div&gt;@hongshancapital/lite-emails&lt;/div&gt;&lt;/div&gt;" style="text;html=1;strokeColor=none;fillColor=none;align=center;verticalAlign=middle;whiteSpace=wrap;rounded=0;" vertex="1" parent="1">
          <mxGeometry x="293.75" y="715" width="260" height="35" as="geometry" />
        </mxCell>
        <mxCell id="EMKO13ywyZYLZtBqqljn-56" value="" style="group" vertex="1" connectable="0" parent="1">
          <mxGeometry x="311" y="750" width="230" height="80" as="geometry" />
        </mxCell>
        <mxCell id="EMKO13ywyZYLZtBqqljn-57" value="" style="group" vertex="1" connectable="0" parent="EMKO13ywyZYLZtBqqljn-56">
          <mxGeometry width="230" height="80" as="geometry" />
        </mxCell>
        <mxCell id="EMKO13ywyZYLZtBqqljn-54" value="" style="group" vertex="1" connectable="0" parent="EMKO13ywyZYLZtBqqljn-57">
          <mxGeometry x="111.20879120879121" width="118.79120879120879" height="80" as="geometry" />
        </mxCell>
        <mxCell id="EMKO13ywyZYLZtBqqljn-7" value="" style="rounded=0;whiteSpace=wrap;html=1;" vertex="1" parent="EMKO13ywyZYLZtBqqljn-54">
          <mxGeometry x="-121.31868131868131" width="240.1098901098901" height="80" as="geometry" />
        </mxCell>
        <mxCell id="EMKO13ywyZYLZtBqqljn-44" value="Email Render(Email)" style="rounded=0;whiteSpace=wrap;html=1;" vertex="1" parent="EMKO13ywyZYLZtBqqljn-54">
          <mxGeometry x="10.10989010989011" y="15.385384615384616" width="98.57142857142857" height="49.23076923076923" as="geometry" />
        </mxCell>
        <mxCell id="EMKO13ywyZYLZtBqqljn-42" value="&lt;div&gt;邮件渲染逻辑&lt;/div&gt;" style="text;html=1;strokeColor=none;fillColor=none;align=center;verticalAlign=middle;whiteSpace=wrap;rounded=0;" vertex="1" parent="EMKO13ywyZYLZtBqqljn-57">
          <mxGeometry y="30" width="90.98901098901098" height="30" as="geometry" />
        </mxCell>
        <mxCell id="EMKO13ywyZYLZtBqqljn-61" value="&lt;div style=&quot;color: rgb(225, 228, 232); background-color: rgb(36, 41, 46); font-family: Fira Code, Menlo, Monaco, &amp;quot;Courier New&amp;quot;, monospace, Menlo, Monaco, &amp;quot;Courier New&amp;quot;, monospace; font-weight: normal; font-size: 14px; line-height: 21px;&quot;&gt;&lt;div&gt;@hongshancapital/lite-emails&lt;/div&gt;&lt;/div&gt;" style="text;html=1;strokeColor=none;fillColor=none;align=center;verticalAlign=middle;whiteSpace=wrap;rounded=0;" vertex="1" parent="1">
          <mxGeometry x="145" y="380" width="260" height="35" as="geometry" />
        </mxCell>
        <mxCell id="EMKO13ywyZYLZtBqqljn-45" value="" style="rounded=0;whiteSpace=wrap;html=1;" vertex="1" parent="1">
          <mxGeometry x="130" y="590" width="470" height="50" as="geometry" />
        </mxCell>
        <mxCell id="EMKO13ywyZYLZtBqqljn-62" value="&lt;div style=&quot;color: rgb(225, 228, 232); background-color: rgb(36, 41, 46); font-family: Fira Code, Menlo, Monaco, &amp;quot;Courier New&amp;quot;, monospace, Menlo, Monaco, &amp;quot;Courier New&amp;quot;, monospace; font-weight: normal; font-size: 14px; line-height: 21px;&quot;&gt;&lt;div&gt;@hongshancapital/daedalus-schemas&lt;/div&gt;&lt;/div&gt;" style="text;html=1;strokeColor=none;fillColor=none;align=center;verticalAlign=middle;whiteSpace=wrap;rounded=0;" vertex="1" parent="1">
          <mxGeometry x="205.80645161290323" y="597.5" width="298.1720430107527" height="35" as="geometry" />
        </mxCell>
        <mxCell id="EMKO13ywyZYLZtBqqljn-65" value="" style="group" vertex="1" connectable="0" parent="1">
          <mxGeometry x="1260" y="445" width="160" height="50" as="geometry" />
        </mxCell>
        <mxCell id="EMKO13ywyZYLZtBqqljn-28" value="" style="rounded=0;whiteSpace=wrap;html=1;" vertex="1" parent="EMKO13ywyZYLZtBqqljn-65">
          <mxGeometry width="160" height="50" as="geometry" />
        </mxCell>
        <mxCell id="EMKO13ywyZYLZtBqqljn-29" value="&lt;font style=&quot;font-size: 14px;&quot;&gt;AWS S3 Bucket&lt;br&gt;&lt;/font&gt;" style="text;html=1;strokeColor=none;fillColor=none;align=center;verticalAlign=middle;whiteSpace=wrap;rounded=0;" vertex="1" parent="EMKO13ywyZYLZtBqqljn-65">
          <mxGeometry x="10" y="10" width="140" height="30" as="geometry" />
        </mxCell>
      </root>
    </mxGraphModel>
  </diagram>
</mxfile>
